<!DOCTYPE svg PUBLIC "-//W3C//DTD SVG 20010904//EN" "http://www.w3.org/TR/2001/REC-SVG-20010904/DTD/svg10.dtd">
<svg version="1.0" xmlns="http://www.w3.org/2000/svg" width="1000px" height="1000px" viewBox="0 0 10000 10000" preserveAspectRatio="xMidYMid meet">
<g id="layer101" fill="#ffffff" stroke="none">
 <path d="M5590 7530 l0 -1770 425 0 425 0 0 1360 0 1360 1040 0 1040 0 0 -1360 0 -1360 385 0 385 0 0 1770 0 1770 -1850 0 -1850 0 0 -1770z"/>
 <path d="M820 7500 l0 -1770 425 0 425 0 0 1360 0 1360 1040 0 1040 0 0 -1360 0 -1360 385 0 385 0 0 1770 0 1770 -1850 0 -1850 0 0 -1770z"/>
 <path d="M870 2410 l0 -1850 1775 0 1775 0 0 420 0 420 -1360 0 -1360 0 0 1045 0 1045 1360 0 1360 0 0 385 0 385 -1775 0 -1775 0 0 -1850z"/>
 <path d="M5590 2335 l0 -1775 1845 0 1845 0 0 1775 0 1775 -415 0 -415 0 0 -1355 0 -1355 -1040 0 -1040 0 0 1355 0 1355 -390 0 -390 0 0 -1775z"/>
 </g>

</svg>